# Blender v2.79 (sub 0) OBJ File: ''
# www.blender.org
mtllib barriers.mtl
o Cube_Cube.003
v -0.266620 0.023711 0.744996
v -0.075007 0.987006 0.744996
v -0.266620 0.023711 -0.744996
v -0.075007 0.987006 -0.744996
v 0.266620 0.023711 0.744996
v 0.075007 0.987006 0.744996
v 0.266620 0.023711 -0.744996
v 0.075007 0.987006 -0.744996
v -0.266620 0.225359 0.744996
v -0.266620 0.225359 -0.744996
v 0.266620 0.225359 -0.744996
v 0.266620 0.225359 0.744996
v -0.141067 0.393167 0.744996
v -0.141067 0.393167 -0.744996
v 0.141067 0.393167 -0.744996
v 0.141067 0.393167 0.744996
vt 0.000000 0.000000
vt 1.000000 0.000000
vt 1.000000 1.000000
vt 0.000000 1.000000
vt 0.000000 0.000000
vt 1.000000 0.000000
vt 1.000000 1.000000
vt 0.000000 1.000000
vt 0.000000 0.000000
vt 1.000000 0.000000
vt 1.000000 1.000000
vt 0.000000 1.000000
vt 0.000000 0.000000
vt 1.000000 0.000000
vt 1.000000 1.000000
vt 0.000000 1.000000
vt 0.000000 0.000000
vt 1.000000 0.000000
vt 1.000000 1.000000
vt 0.000000 1.000000
vt 0.000000 0.000000
vt 0.000000 1.000000
vt 0.000000 0.000000
vt 1.000000 0.000000
vt 1.000000 1.000000
vt 0.000000 0.000000
vt 1.000000 0.000000
vt 1.000000 1.000000
vt 0.000000 1.000000
vt 1.000000 0.000000
vt 1.000000 1.000000
vt 0.000000 1.000000
vt 0.000000 0.000000
vt 1.000000 0.000000
vt 1.000000 1.000000
vt 0.000000 1.000000
vt 0.000000 0.000000
vt 1.000000 0.000000
vt 1.000000 1.000000
vt 0.000000 1.000000
vt 0.000000 0.000000
vt 1.000000 0.000000
vt 1.000000 1.000000
vt 0.000000 1.000000
vt 0.000000 0.000000
vt 1.000000 0.000000
vt 1.000000 1.000000
vt 0.000000 1.000000
vt 0.000000 0.000000
vt 1.000000 0.000000
vt 1.000000 1.000000
vt 0.000000 1.000000
vn -0.9939 0.1106 0.0000
vn 0.0000 0.0000 -1.0000
vn 0.9939 0.1106 0.0000
vn 0.0000 0.0000 1.0000
vn 0.0000 -1.0000 0.0000
vn 0.0000 1.0000 0.0000
vn 1.0000 0.0000 0.0000
vn -1.0000 0.0000 0.0000
vn 0.8007 0.5991 0.0000
vn -0.8007 0.5991 0.0000
usemtl Material.001
s off
f 13/1/1 2/2/1 4/3/1 14/4/1
f 14/5/2 4/6/2 8/7/2 15/8/2
f 15/9/3 8/10/3 6/11/3 16/12/3
f 16/13/4 6/14/4 2/15/4 13/16/4
f 3/17/5 7/18/5 5/19/5 1/20/5
f 8/21/6 4/6/6 2/15/6 6/22/6
f 5/23/4 12/24/4 9/25/4 1/20/4
f 7/26/7 11/27/7 12/28/7 5/29/7
f 3/17/2 10/30/2 11/31/2 7/32/2
f 1/33/8 9/34/8 10/35/8 3/36/8
f 12/37/4 16/38/4 13/39/4 9/40/4
f 11/41/9 15/42/9 16/43/9 12/44/9
f 10/45/2 14/46/2 15/47/2 11/48/2
f 9/49/10 13/50/10 14/51/10 10/52/10
